<?xml version="1.0" encoding="UTF-8"?>
<svg id="uuid-581c31d5-7617-4e3a-891c-e67e09d09c68" data-name="Layer 1" xmlns="http://www.w3.org/2000/svg" viewBox="0 0 1504.52 745.11">
  <defs>
    <style>
      .uuid-88c4f771-25f3-4aab-804a-f859be3e6e14, .uuid-7f74bb54-38e4-4479-96f1-fa0afb736e94 {
        fill-rule: evenodd;
      }

      .uuid-88c4f771-25f3-4aab-804a-f859be3e6e14, .uuid-7f74bb54-38e4-4479-96f1-fa0afb736e94, .uuid-7efa3401-0aea-4743-8cc3-38906ebf0bf0, .uuid-2eba47cd-fe76-4301-a7fb-8b55d5953cd4 {
        stroke-width: 0px;
      }

      .uuid-88c4f771-25f3-4aab-804a-f859be3e6e14, .uuid-2eba47cd-fe76-4301-a7fb-8b55d5953cd4 {
        fill: #f60;
      }

      .uuid-7f74bb54-38e4-4479-96f1-fa0afb736e94, .uuid-7efa3401-0aea-4743-8cc3-38906ebf0bf0 {
        fill: #333;
      }
    </style>
  </defs>
  <path class="uuid-7f74bb54-38e4-4479-96f1-fa0afb736e94" d="m1085.91,271.06c9.64-.64,19.42-1.28,29.33-1.94,10.04-.66,20.21-1.34,30.52-1.98,20.75-11.2,36.83-19.9,49.67-26.81-7.26.52-14.44,1.02-21.55,1.53-7.04.5-14.04,1.03-20.96,1.52-17.38,7.17-39.09,16.16-67,27.68m94.95-39.23c5.76-.44,11.56-.86,17.4-1.29,5.87-.42,11.79-.88,17.74-1.32,7.19-3.89,13.35-7.19,18.72-10.13-4.75.37-9.5.73-14.22,1.09-4.71.36-9.42.72-14.11,1.08-7.33,3.04-15.74,6.54-25.52,10.58ZM197,525.13h274.08c288.14-119.07,431.26-178.19,515.11-212.87,13.58-.8,27.37-1.59,41.38-2.38,14.22-.79,28.7-1.61,43.42-2.42-63.67,34.36-174.19,94.01-403.37,217.66h270.53l369.38-328.93-118.09,8.88L197,525.13Z"/>
  <path class="uuid-88c4f771-25f3-4aab-804a-f859be3e6e14" d="m349.79,475.86C423.21,222.38,657.08,37.05,934.24,37.05c98.85,0,192.2,23.58,274.73,65.42C1105.64,37.55,983.37,0,852.33,0,531.79,0,263.71,224.67,197,525.13l152.78-49.27Z"/>
  <path class="uuid-88c4f771-25f3-4aab-804a-f859be3e6e14" d="m415.24,454.75C499.29,229.5,716.38,69.09,970.94,69.09c79.76,0,155.84,15.75,225.31,44.3-79.02-38.98-167.96-60.88-262.02-60.88-266.42,0-491.8,175.72-566.58,417.58l47.58-15.35Z"/>
  <path class="uuid-2eba47cd-fe76-4301-a7fb-8b55d5953cd4" d="m676.18,622.39v-30.68h-125.31v30.68h46.02v120.55h33.27v-120.55h46.02Zm-180.45,75.83v-.43c0-6.62-1.04-12.32-3.13-17.08-2.09-4.75-5.22-8.88-9.32-12.42-4.11-3.53-9.19-6.56-15.16-9.07-5.98-2.53-12.82-4.79-20.49-6.81-6.48-1.73-11.85-3.24-16.13-4.54-4.25-1.3-7.6-2.66-10.08-4.11-2.45-1.43-4.14-3.05-5.08-4.86-.94-1.81-1.4-3.92-1.4-6.37v-.44c0-3.73,1.62-6.88,4.86-9.39,3.24-2.52,8.1-3.79,14.58-3.79s12.96,1.34,19.45,4c6.48,2.66,13.11,6.3,19.87,10.92l17.29-25.06c-7.78-6.2-16.31-10.95-25.6-14.26-9.29-3.32-19.48-4.96-30.57-4.96-7.78,0-14.91,1.07-21.35,3.24-6.45,2.15-12.03,5.26-16.67,9.29-4.64,4.03-8.25,8.82-10.84,14.37-2.56,5.54-3.85,11.78-3.85,18.68v.44c0,7.48,1.19,13.76,3.56,18.79,2.38,5.04,5.76,9.26,10.08,12.64,4.32,3.39,9.61,6.24,15.81,8.54,6.23,2.3,13.14,4.39,20.81,6.26,6.34,1.58,11.52,3.09,15.49,4.54,3.96,1.45,7.06,2.88,9.32,4.32,2.24,1.45,3.75,2.98,4.54,4.64.79,1.66,1.19,3.56,1.19,5.73v.43c0,4.47-1.91,7.96-5.73,10.48-3.81,2.53-9.18,3.79-16.09,3.79-8.64,0-16.6-1.66-23.88-4.96-7.27-3.32-14.36-7.79-21.28-13.41l-19.66,23.55c9.08,8.22,19.16,14.3,30.25,18.27,11.09,3.96,22.4,5.94,33.92,5.94,8.21,0,15.7-1.04,22.44-3.13,6.73-2.1,12.56-5.12,17.43-9.09,4.86-3.96,8.64-8.86,11.38-14.68,2.7-5.83,4.07-12.5,4.07-19.99Zm-230.15-18.59h-40.19l20.1-49.04,20.09,49.04Zm60.49,63.31l-64.82-152.32h-30.68l-64.82,152.32h33.92l13.83-33.92h63.95l13.83,33.92h34.78Zm-210.91-121.21v-30.03H0v151.24h33.27v-58.54h72.16v-30.04H33.27v-32.62h81.89Z"/>
  <path class="uuid-7efa3401-0aea-4743-8cc3-38906ebf0bf0" d="m1504.52,742.94v-29.6h-82.09v-31.75h71.3v-29.6h-71.3v-30.68h81.02v-29.6h-113.86v151.24h114.94Zm-188.23,0v-151.24h-32.84v93.12l-70.87-93.12h-30.68v151.24h32.84v-96.14l73.24,96.14h28.3Zm-255.21-63.31h-40.18l20.09-49.04,20.09,49.04Zm60.5,63.31l-64.82-152.32h-30.68l-64.82,152.32h33.92l13.83-33.92h63.95l13.83,33.92h34.78Zm-209.4,0v-30.03h-75.4v-121.21h-33.27v151.24h108.68Z"/>
</svg>